<?xml version="1.0" encoding="iso-8859-1"?>
<!-- Uploaded to: SVG Repo, www.svgrepo.com, Generator: SVG Repo Mixer Tools -->
<svg fill="#000000" height="800px" width="800px" version="1.1" id="Layer_1" xmlns="http://www.w3.org/2000/svg" xmlns:xlink="http://www.w3.org/1999/xlink" 
	 viewBox="0 0 491.601 491.601" xml:space="preserve">
<g>
	<g>
		<path d="M478.947,308.798c-7.639-3.133-16.466-1.413-22.323,4.444l-42.066,42.086c-6.697-8.52-15.196-15.442-25.027-20.214
			c-14.807-24.084-25.559-46.1-33.956-69.202l107.295-65.761c37.724-23.101,33.628-85.955,14.377-117.371l-2.499-4.076
			c-0.041-11.633-3.031-23.081-9.277-33.26L443.639,9.831c-2.826-4.628-7.393-7.946-12.677-9.216
			c-5.304-1.29-10.854-0.389-15.483,2.458L18.556,246.334C0.268,257.557-5.487,281.58,5.736,299.951l2.232,3.625
			c6.656,10.854,15.503,19.517,25.518,26.03l-13.332,26.46c-4.895,9.667-1.413,21.443,7.946,26.911l81.961,47.841
			c3.236,1.884,6.779,2.785,10.301,2.785c6.41,0,12.677-2.99,16.671-8.54l39.404-54.907c7.291-0.942,14.357-3.256,20.951-7.291
			l41.062-25.17c16.609,18.022,31.58,37.929,47.145,62.976c0.43,0.696,1.004,1.229,1.516,1.843
			c1.659,38.052,32.891,68.567,71.352,68.567c22.815,0,42.947-10.916,56.095-27.587l42.066,42.066
			c3.932,3.932,9.155,6.001,14.479,6.001c2.642,0,5.304-0.512,7.844-1.556c7.66-3.174,12.636-10.629,12.636-18.924v-143.36
			C491.583,319.448,486.606,311.973,478.947,308.798z M175.986,327.947c-2.847,1.741-7.045,1.823-11.653,1.167
			c-1.741-0.225-3.502-0.491-5.366-1.003c-1.618-0.451-3.297-1.106-4.977-1.761c-1.454-0.553-2.908-1.065-4.403-1.761
			c-1.905-0.922-3.789-2.028-5.693-3.133c-1.024-0.594-2.068-1.167-3.072-1.823l309.391-189.624
			c0.369,3.625,0.512,7.291,0.348,10.875c-0.471,11.878-3.953,21.197-9.093,24.351L175.986,327.947z"/>
	</g>
</g>
</svg>